<svg width="144" height="20" viewBox="0 0 144 20" fill="none" xmlns="http://www.w3.org/2000/svg">
<g clip-path="url(#clip0_4003_1396)">
<path d="M78.8108 0.00752155V15.4887H78.6991L63.7464 0.00752155H63.1108V20.1158H64.3919V4.66918H64.5036L79.422 20.1143H80.0919V0.00752155H78.8108ZM7.67291 1.46466C8.73503 0.941356 9.94888 0.66767 11.1413 0.66767C12.1519 0.66767 13.3557 0.96692 14.3305 1.2391V0.571431C13.0651 0.234589 11.7711 0.00902219 10.5572 0.00902219C4.97179 0.00902219 0.511451 3.89324 0.5 10.0496V10.0617V10.0737C0.511451 16.2301 4.97323 20.1143 10.5572 20.1143C11.7725 20.1143 13.0651 19.8887 14.3305 19.5504V18.8827C13.3557 19.1549 12.1533 19.4541 11.1413 19.4541C9.94888 19.4541 8.73503 19.1805 7.67291 18.6571C4.60821 17.188 3.07371 13.6256 3.07085 10.0617C3.07371 6.49624 4.60678 2.93384 7.67291 1.46466ZM28.6963 10.0722C28.6963 15.9023 32.3379 20.1143 38.7106 20.1143C45.0834 20.1143 48.7464 15.9248 48.7464 10.0722C48.7464 4.21955 45.0834 0.00752155 38.7106 0.00752155C32.3379 0.00752155 28.6963 4.21955 28.6963 10.0722ZM35.1335 18.5895C32.2076 16.8135 31.3831 13.1925 31.3831 10.0722C31.3831 5.10827 33.5503 0.530827 38.7092 0.530827C43.8466 0.530827 46.0582 5.10827 46.0582 10.0722C46.0582 13.215 45.2351 16.812 42.2863 18.5895C41.2242 19.2496 39.9674 19.5684 38.7092 19.5684C37.4309 19.5684 36.1956 19.2496 35.1335 18.5895ZM96.7566 0.102259C95.4769 0.98647 94.4735 2.76541 94.4291 4.1218C94.3947 5.16391 94.5937 6.04662 94.9659 6.80902L95.4082 6.8L95.0947 7.05715C97.8817 12.0692 108.386 11.6135 107.444 17.6211C107.425 17.7323 107.525 18.0962 107.491 18.1323C107.856 17.0692 108.099 16.6045 107.949 15.412C107.505 11.8662 103.978 10.4526 100.684 9.09624C98.3641 8.14136 96.164 7.18797 95.215 5.62256C94.097 3.77444 95.3538 1.35188 96.7566 0.102259ZM107.434 18.2827C107.348 18.3789 107.195 18.4481 107.139 18.5609C106.845 19.1579 106.374 19.7008 105.779 20.1444L106.538 19.8196C106.944 19.5008 107.311 19.1729 107.628 18.8211C107.75 18.6857 107.694 18.4767 107.802 18.3338C107.903 18.1985 108.171 18.1323 108.258 17.9895C108.689 17.2902 108.945 16.4917 108.977 15.5293C109.058 13.0481 107.812 11.4677 106.052 10.2917L105.594 10.7805L105.72 10.0767C101.619 7.53083 95.172 6.88121 95.7489 2.41805C95.8691 1.5188 96.3444 0.658647 97.1374 0C96.9756 0.0285714 96.7452 0.172934 96.6493 0.264663C95.3366 1.51429 94.1815 3.81955 95.255 5.59248C96.1955 7.14586 98.3956 8.05113 100.709 9.00451C104.257 10.4662 108.069 12.0361 108.043 16.2241C108.043 16.2827 107.946 17.3008 107.537 18.0992C107.498 18.1759 107.499 18.2075 107.434 18.2827ZM123.363 10.0722C123.363 15.9023 127.004 20.1143 133.377 20.1143C139.75 20.1143 143.413 15.9248 143.413 10.0722C143.413 4.21955 139.75 0.00752155 133.377 0.00752155C127.004 0.00752155 123.363 4.21955 123.363 10.0722ZM129.801 18.5895C126.875 16.8135 126.051 13.1925 126.051 10.0722C126.051 5.10827 128.218 0.530827 133.377 0.530827C138.514 0.530827 140.726 5.10827 140.726 10.0722C140.726 13.215 139.903 16.812 136.954 18.5895C135.892 19.2496 134.635 19.5684 133.377 19.5684C132.099 19.5684 130.863 19.2496 129.801 18.5895Z" fill="black"/>
</g>
<defs>
<clipPath id="clip0_4003_1396">
<rect width="143" height="20" fill="white" transform="translate(0.5)"/>
</clipPath>
</defs>
</svg>
