<svg width="32" height="33" viewBox="0 0 32 33" fill="none" xmlns="http://www.w3.org/2000/svg">
<path fill-rule="evenodd" clip-rule="evenodd" d="M29.3333 16.9425C23.4288 17.1235 20.7335 17.2759 18.5716 19.3712C16.4763 21.5331 16.3334 24.2283 16.1429 30.133C23.3937 30.0568 29.2572 24.1933 29.3333 16.9425ZM15.8571 30.133C15.6761 24.2283 15.5237 21.5331 13.4284 19.3712C11.2665 17.2759 8.5712 17.133 2.66663 16.9425C2.74275 24.1933 8.60627 30.0568 15.8571 30.133ZM29.3333 16.6567C29.2572 9.40592 23.3937 3.54244 16.1429 3.46631C16.3238 9.37088 16.4763 12.0661 18.5716 14.228C20.7335 16.3233 23.4288 16.4663 29.3333 16.6567ZM15.8571 3.46631C8.60627 3.54244 2.74275 9.40592 2.66663 16.6567C8.5712 16.4758 11.2665 16.3233 13.4284 14.228C15.5237 12.0661 15.6666 9.37088 15.8571 3.46631Z" fill="#808080"/>
</svg>
