<svg width="24" height="24" viewBox="0 0 24 24" fill="none" xmlns="http://www.w3.org/2000/svg">
<path fill-rule="evenodd" clip-rule="evenodd" d="M8.6 5C9.34466 5.00002 10.066 5.25966 10.6399 5.73422C11.2137 6.20879 11.6042 6.86858 11.744 7.6H20.2V8.8H11.744C11.6041 9.53135 11.2136 10.1911 10.6398 10.6655C10.0659 11.14 9.34461 11.3996 8.6 11.3996C7.85539 11.3996 7.13408 11.14 6.56023 10.6655C5.98637 10.1911 5.59589 9.53135 5.456 8.8H3V7.6H5.456C5.59581 6.86858 5.98626 6.20879 6.56012 5.73422C7.13398 5.25966 7.85534 5.00002 8.6 5ZM10.6 8.2C10.6 7.66957 10.3893 7.16086 10.0142 6.78579C9.63914 6.41071 9.13043 6.2 8.6 6.2C8.06957 6.2 7.56086 6.41071 7.18579 6.78579C6.81071 7.16086 6.6 7.66957 6.6 8.2C6.6 8.73043 6.81071 9.23914 7.18579 9.61421C7.56086 9.98929 8.06957 10.2 8.6 10.2C9.13043 10.2 9.63914 9.98929 10.0142 9.61421C10.3893 9.23914 10.6 8.73043 10.6 8.2ZM17.744 15.6C17.6041 14.8687 17.2136 14.2089 16.6398 13.7345C16.0659 13.26 15.3446 13.0004 14.6 13.0004C13.8554 13.0004 13.1341 13.26 12.5602 13.7345C11.9864 14.2089 11.5959 14.8687 11.456 15.6H3V16.8H11.456C11.5959 17.5314 11.9864 18.1911 12.5602 18.6655C13.1341 19.14 13.8554 19.3996 14.6 19.3996C15.3446 19.3996 16.0659 19.14 16.6398 18.6655C17.2136 18.1911 17.6041 17.5314 17.744 16.8H20.2V15.6H17.744ZM16.6 16.2C16.6 15.6696 16.3893 15.1609 16.0142 14.7858C15.6391 14.4107 15.1304 14.2 14.6 14.2C14.0696 14.2 13.5609 14.4107 13.1858 14.7858C12.8107 15.1609 12.6 15.6696 12.6 16.2C12.6 16.7304 12.8107 17.2391 13.1858 17.6142C13.5609 17.9893 14.0696 18.2 14.6 18.2C15.1304 18.2 15.6391 17.9893 16.0142 17.6142C16.3893 17.2391 16.6 16.7304 16.6 16.2Z" fill="#887469"/>
</svg>
