<svg width="46" height="58" viewBox="0 0 46 58" fill="none" xmlns="http://www.w3.org/2000/svg">
<path d="M7.36787 0.294426C3.32354 2.84026 0.152306 7.96223 0.0120665 11.8676C-0.0965061 14.868 0.53231 17.4095 1.70851 19.6047L3.1064 19.5787L2.11567 20.3191C10.9236 34.7498 44.1197 33.4379 41.143 50.7349C41.0842 51.0553 41.4008 52.103 41.2923 52.2069C42.4459 49.1459 43.2149 47.808 42.7399 44.3746C41.3375 34.1653 30.1907 30.0954 19.7813 26.1901C12.4481 23.4407 5.49498 20.6957 2.49566 16.1886C-1.03747 10.8674 2.93448 3.89237 7.36787 0.294426ZM41.1113 52.6399C40.8399 52.917 40.3559 53.1162 40.1794 53.4409C39.252 55.1598 37.7637 56.7228 35.8818 58L38.2794 57.0648C39.5642 56.1469 40.7223 55.203 41.7266 54.1899C42.1111 53.8002 41.9347 53.1984 42.274 52.7871C42.5952 52.3974 43.4411 52.2069 43.7171 51.7956C45.0787 49.7823 45.8885 47.4833 45.988 44.7123C46.2459 37.5684 42.3056 33.0179 36.7458 29.6321L35.2982 31.0393L35.6963 29.013C22.7354 21.6829 2.35994 19.8125 4.18305 6.96209C4.56306 4.37295 6.06498 1.89639 8.5712 0C8.06 0.0822634 7.33168 0.497914 7.02858 0.762023C2.8802 4.35996 -0.770552 10.9973 2.62234 16.102C5.59452 20.5745 12.5477 23.181 19.8582 25.926C31.0729 30.1344 43.1199 34.6545 43.0385 46.7126C43.0385 46.8815 42.7308 49.8126 41.437 52.1117C41.3149 52.3325 41.3194 52.4234 41.1113 52.6399Z" fill="black"/>
</svg>
