<svg width="16" height="16" viewBox="0 0 16 16" fill="none" xmlns="http://www.w3.org/2000/svg">
<path fill-rule="evenodd" clip-rule="evenodd" d="M4.55962 1.6503C4.30143 1.03197 4.02972 1.01937 3.78448 1.00863L3.12415 1C2.89443 1 2.52122 1.09298 2.20575 1.46468C1.89017 1.83638 1 2.73472 1 4.56207C1 6.3893 2.23433 8.1551 2.40642 8.4031C2.57838 8.6512 4.78933 12.5205 8.2906 14.0093C11.2002 15.2464 11.7923 15.0003 12.4241 14.9385C13.0559 14.8767 14.4621 14.0402 14.7489 13.1729C15.0358 12.3056 15.0359 11.5625 14.95 11.4071C14.864 11.2519 14.6343 11.1594 14.2895 10.9736C13.9448 10.7877 12.2516 9.8894 11.9358 9.7654C11.6201 9.6413 11.3906 9.5797 11.1606 9.9514C10.9308 10.3231 10.2714 11.1593 10.0704 11.4071C9.8694 11.6551 9.6687 11.6862 9.3239 11.5005C8.9792 11.3149 7.86992 10.9225 6.55392 9.6572C5.52994 8.6728 4.8388 7.45703 4.63755 7.08557C4.4363 6.71398 4.6162 6.51273 4.78887 6.3277C4.94345 6.16122 5.13327 5.89393 5.30582 5.67717C5.47837 5.4604 5.53518 5.30547 5.64987 5.05802C5.76455 4.81057 5.70739 4.59322 5.62117 4.40748C5.53507 4.22187 4.86575 2.38483 4.55962 1.6503Z" fill="#654329"/>
</svg>
