<svg width="16" height="16" viewBox="0 0 16 16" fill="none" xmlns="http://www.w3.org/2000/svg">
<rect x="0.5" y="0.5" width="15" height="15" rx="7.5" stroke="#DBD8D3"/>
<path d="M8.53542 12.2656H7.46875V13.3323H8.53542V12.2656Z" fill="#DBD8D3"/>
<path d="M7.38123 10.1385C7.37671 9.97992 7.37446 9.86098 7.37446 9.78173C7.37446 9.31474 7.44211 8.91172 7.57742 8.57252C7.67665 8.31703 7.83676 8.05932 8.05776 7.79943C8.22013 7.61 8.51104 7.33468 8.93049 6.97346C9.3545 6.60784 9.62959 6.3171 9.75588 6.10125C9.88218 5.8854 9.94532 5.64973 9.94532 5.39423C9.94532 4.93169 9.76036 4.52642 9.39055 4.17842C9.02069 3.82601 8.56741 3.64981 8.0307 3.64981C7.51202 3.64981 7.07904 3.80839 6.73176 4.12556C6.38447 4.44272 6.1567 4.9383 6.04846 5.61228L4.79688 5.46692C4.90963 4.56386 5.24338 3.87226 5.79814 3.39211C6.35741 2.91195 7.09483 2.67188 8.0104 2.67188C8.9801 2.67188 9.75364 2.92957 10.3309 3.44496C10.9082 3.96037 11.1968 4.58369 11.1968 5.31494C11.1968 5.73783 11.0954 6.12768 10.8924 6.48449C10.6894 6.84132 10.2925 7.27521 9.7017 7.78621C9.30479 8.12981 9.04549 8.3831 8.92372 8.54609C8.80195 8.70908 8.71174 8.89629 8.65311 9.10774C8.59448 9.31922 8.56065 9.6628 8.55163 10.1385H7.38123Z" fill="#DBD8D3"/>
</svg>
