<svg width="16" height="16" viewBox="0 0 16 16" fill="none" xmlns="http://www.w3.org/2000/svg">
<path fill-rule="evenodd" clip-rule="evenodd" d="M8 16C12.4183 16 16 12.4183 16 8C16 3.58172 12.4183 0 8 0C3.58172 0 0 3.58172 0 8C0 12.4183 3.58172 16 8 16ZM6.22135 4.88802C6.22135 5.6244 5.6244 6.22135 4.88802 6.22135C4.15164 6.22135 3.55469 5.6244 3.55469 4.88802C3.55469 4.15164 4.15164 3.55469 4.88802 3.55469C5.6244 3.55469 6.22135 4.15164 6.22135 4.88802ZM11.7247 4.26746C12.3105 4.85325 12.3105 5.803 11.7247 6.38879L6.39139 11.7221C5.8056 12.3079 4.85585 12.3079 4.27007 11.7221C3.68428 11.1363 3.68428 10.1866 4.27007 9.6008L9.6034 4.26746C10.1892 3.68168 11.1389 3.68168 11.7247 4.26746ZM12.4479 11.1146C12.4479 11.851 11.851 12.4479 11.1146 12.4479C10.3782 12.4479 9.78125 11.851 9.78125 11.1146C9.78125 10.3782 10.3782 9.78125 11.1146 9.78125C11.851 9.78125 12.4479 10.3782 12.4479 11.1146Z" fill="#654329"/>
</svg>
