<svg width="32" height="33" viewBox="0 0 32 33" fill="none" xmlns="http://www.w3.org/2000/svg">
<path d="M3.12514 15.2124C10.1216 12.1641 14.787 10.1545 17.1214 9.18359C23.7865 6.41136 25.1714 5.9298 26.0741 5.91373C26.2726 5.9104 26.7165 5.9596 27.0041 6.19293C27.2469 6.38995 27.3137 6.65609 27.3457 6.84288C27.3776 7.02967 27.4174 7.45519 27.3858 7.78768C27.0246 11.5826 25.4618 20.792 24.6667 25.0425C24.3303 26.841 23.6678 27.444 23.0265 27.503C21.6328 27.6313 20.5745 26.582 19.2246 25.6971C17.1123 24.3124 15.9189 23.4505 13.8686 22.0993C11.499 20.5378 13.0351 19.6796 14.3855 18.277C14.7389 17.91 20.8797 12.3244 20.9986 11.8177C21.0134 11.7544 21.0272 11.5182 20.8869 11.3934C20.7466 11.2687 20.5394 11.3114 20.39 11.3453C20.1781 11.3934 16.8037 13.6237 10.2666 18.0364C9.30881 18.6941 8.44124 19.0146 7.66393 18.9978C6.807 18.9793 5.15863 18.5133 3.93323 18.115C2.43023 17.6264 1.23567 17.3681 1.33969 16.5384C1.39387 16.1062 1.98902 15.6642 3.12514 15.2124Z" fill="#808080"/>
</svg>
