<svg width="32" height="33" viewBox="0 0 32 33" fill="none" xmlns="http://www.w3.org/2000/svg">
<path d="M17.4388 26.0611C17.4388 26.0611 17.9677 26.0002 18.239 25.6984C18.4875 25.4218 18.4792 24.9005 18.4792 24.9005C18.4792 24.9005 18.4462 22.4642 19.538 22.1054C20.6142 21.7514 21.9957 24.4604 23.4615 25.5021C24.5689 26.2894 25.4105 26.1172 25.4105 26.1172L29.3275 26.0611C29.3275 26.0611 31.3764 25.9296 30.4056 24.2612C30.3249 24.1248 29.8391 23.0271 27.4932 20.7717C25.0346 18.4108 25.3655 18.7919 28.3228 14.7065C30.126 12.2199 30.8456 10.7005 30.6201 10.0515C30.4074 9.42965 29.081 9.595 29.081 9.595L24.6698 9.6231C24.6698 9.6231 24.3434 9.57667 24.1005 9.72658C23.8631 9.87262 23.71 10.2169 23.71 10.2169C23.71 10.2169 23.0123 12.1406 22.0819 13.779C20.1174 17.2318 19.3327 17.4146 19.0109 17.2008C18.2638 16.6999 18.4499 15.192 18.4499 14.1204C18.4499 10.7721 18.9412 9.37742 17.4965 9.01666C17.0171 8.89674 16.6641 8.8174 15.4376 8.80386C13.8627 8.78645 12.5325 8.80968 11.7772 9.19075C11.2757 9.44608 10.888 10.0128 11.1245 10.0457C11.4151 10.0863 12.076 10.2295 12.4262 10.7227C12.8781 11.3611 12.8626 12.7905 12.8626 12.7905C12.8626 12.7905 13.122 16.7308 12.2557 17.2192C11.6617 17.5558 10.8467 16.8711 9.0958 13.7365C8.19834 12.1319 7.52089 10.3581 7.52089 10.3581C7.52089 10.3581 7.39072 10.0264 7.15696 9.84842C6.8737 9.63274 6.48043 9.56601 6.48043 9.56601L2.28925 9.59405C2.28925 9.59405 1.65855 9.61244 1.42845 9.89582C1.22403 10.1473 1.41287 10.6686 1.41287 10.6686C1.41287 10.6686 4.69377 18.6197 8.41102 22.6267C11.8184 26.3 15.686 26.0602 15.686 26.0602L17.4388 26.0611Z" fill="#808080"/>
</svg>
