<svg width="16" height="16" viewBox="0 0 16 16" fill="none" xmlns="http://www.w3.org/2000/svg">
<g clip-path="url(#clip0_4049_12537)">
<path fill-rule="evenodd" clip-rule="evenodd" d="M1.83661 12.2888L1.64634 11.9864C0.895428 10.7915 0.497973 9.40844 0.500008 7.99724C0.50148 3.86421 3.86621 0.500021 8.00312 0.50003L8.00434 0.500021C8.98919 0.497696 9.96475 0.690728 10.8745 1.06795C11.7843 1.4452 12.6102 1.99908 13.3044 2.69768L13.3063 2.69961C14.0045 3.39435 14.5578 4.22068 14.9344 5.13075C15.3109 6.04076 15.5031 7.01649 15.5 8.00134V8.00265C15.4984 12.1362 12.1335 15.5001 8.00012 15.5001H7.99743C6.65069 15.4993 5.33082 15.1379 4.18048 14.4552L3.88774 14.2818L3.74401 14.1966C3.72102 14.183 3.69353 14.1792 3.66768 14.186L3.50614 14.2283L1.4837 14.7586C1.40923 14.7781 1.34155 14.7097 1.36189 14.6355L1.8956 12.6871L1.9421 12.5175C1.94952 12.4904 1.94524 12.4615 1.93031 12.4378L1.83661 12.2888ZM5.59212 4.00592C5.73225 4.01205 5.88752 4.01925 6.03505 4.37258C6.13563 4.61391 6.30482 5.06351 6.43982 5.42226C6.53962 5.68747 6.62074 5.90304 6.64165 5.94812C6.69092 6.05426 6.72359 6.17846 6.65805 6.31985C6.64799 6.34156 6.63871 6.36202 6.62985 6.38155C6.58099 6.48927 6.54492 6.56881 6.46145 6.67366C6.4281 6.71555 6.39363 6.76074 6.35918 6.8059C6.29178 6.89425 6.22451 6.98244 6.16605 7.0454C6.06738 7.15113 5.96459 7.26612 6.07958 7.47846C6.19458 7.69073 6.58952 8.38545 7.17465 8.94804C7.80449 9.55359 8.35145 9.8092 8.62827 9.93857C8.68196 9.96366 8.7255 9.98401 8.75749 10.0012C8.95456 10.1074 9.06921 10.0896 9.18406 9.94798C9.2989 9.80633 9.67569 9.32848 9.80703 9.11604C9.93847 8.9037 10.0696 8.93885 10.25 9.00982C10.4305 9.0807 11.398 9.59398 11.595 9.7002C11.6338 9.72108 11.6699 9.7399 11.7035 9.75733C11.8404 9.82856 11.9329 9.87666 11.9724 9.94798C12.0215 10.0368 12.0215 10.4614 11.8575 10.9569C11.6936 11.4526 10.89 11.9305 10.5291 11.9659C10.4943 11.9693 10.4598 11.9736 10.4242 11.9782C10.0905 12.0204 9.66956 12.0738 8.16706 11.4349C6.31596 10.6478 5.09602 8.69628 4.84606 8.29643C4.82586 8.26411 4.81199 8.24193 4.80464 8.23132L4.80248 8.2282C4.69643 8.07539 4.00098 7.07326 4.00098 6.03646C4.00098 5.05948 4.44626 4.54721 4.65129 4.31134C4.6654 4.29511 4.67837 4.28019 4.68998 4.26651C4.87025 4.05411 5.08351 4.00098 5.21478 4.00098L5.59212 4.00592Z" fill="#654329"/>
</g>
<defs>
<clipPath id="clip0_4049_12537">
<rect width="15.9999" height="16" fill="white"/>
</clipPath>
</defs>
</svg>
