<svg width="32" height="33" viewBox="0 0 32 33" fill="none" xmlns="http://www.w3.org/2000/svg">
<path fill-rule="evenodd" clip-rule="evenodd" d="M28.5019 6.14287C29.8789 6.51534 30.9632 7.61249 31.3312 9.00559C32 11.531 32 16.7996 32 16.7996C32 16.7996 32 22.0684 31.3312 24.5938C30.9632 25.9869 29.8789 27.0841 28.5019 27.4566C26.0067 28.133 16 28.133 16 28.133C16 28.133 5.99328 28.133 3.49781 27.4566C2.12085 27.0841 1.03651 25.9869 0.668587 24.5938C7.62939e-08 22.0684 0 16.7996 0 16.7996C0 16.7996 7.62939e-08 11.531 0.668587 9.00559C1.03651 7.61249 2.12085 6.51534 3.49781 6.14287C5.99328 5.46631 16 5.46631 16 5.46631C16 5.46631 26.0067 5.46631 28.5019 6.14287ZM21 17.2925L13 12.365V22.2201L21 17.2925Z" fill="#808080"/>
</svg>
